<svg width="52" height="52" viewBox="0 0 52 52" fill="none" xmlns="http://www.w3.org/2000/svg">
<path fill-rule="evenodd" clip-rule="evenodd" d="M6.09346 42.7112C11.7751 33.6835 17.4572 24.6549 23.1399 15.6256L23.5076 15.0396C23.7631 14.6354 24.1305 14.3003 24.5728 14.0683C25.015 13.8362 25.5162 13.7156 26.0257 13.7185C26.5352 13.7215 27.0347 13.8479 27.4737 14.085C27.9127 14.3221 28.2756 14.6614 28.5254 15.0686L29.343 16.3669L14.9561 39.2057L13.4537 41.5925H38.5598L34.804 35.629L38.1343 30.3414L46.0587 42.9297C46.3104 43.3317 46.4424 43.7873 46.4416 44.2508C46.4407 44.7144 46.307 45.1696 46.0538 45.5708C45.8006 45.972 45.4368 46.3051 44.9989 46.5367C44.5611 46.7684 44.0645 46.8904 43.559 46.8905L26.0039 46.9021H8.45358C7.92247 46.9021 7.40161 46.768 6.94803 46.5147C6.49444 46.2613 6.12561 45.8984 5.88192 45.4657C5.63822 45.0329 5.52905 44.5471 5.56636 44.0612C5.60368 43.5754 5.78603 43.1084 6.09346 42.7112ZM1.37544 11.9904L10.2008 26.0094L1.37544 40.0082C0.477659 41.2683 -0.000298046 42.741 4.93525e-07 44.2463C4.93525e-07 48.5255 3.78674 52 8.45358 52H26.0052L43.5618 51.9878C45.0365 51.9865 46.4853 51.6319 47.7646 50.9592C51.8009 48.8314 53.2013 44.0812 50.8728 40.3816L41.8215 26.0033L50.8737 11.6164C53.2022 7.91682 51.8018 3.16858 47.7646 1.04287C46.4865 0.367983 45.0379 0.0120127 43.5631 0.0104287L26.0096 0H8.45358C3.78674 0 4.93525e-07 3.47275 4.93525e-07 7.75198C-0.000560654 9.25735 0.477416 10.7302 1.37544 11.9904ZM8.45358 5.09846H26.0052L43.5602 5.1086C44.0654 5.10893 44.5616 5.23097 44.9991 5.46251C45.4366 5.69404 45.8 6.02694 46.0531 6.42785C46.3061 6.82875 46.4398 7.2836 46.4408 7.74681C46.4418 8.21002 46.31 8.66534 46.0587 9.06716L28.4544 37.0395C28.1897 37.4261 27.8206 37.7434 27.3829 37.9607C26.9451 38.1779 26.4535 38.2878 25.9558 38.2796C25.4582 38.2714 24.9712 38.1454 24.5423 37.9138C24.1133 37.6822 23.7569 37.3529 23.5076 36.9578L22.6705 35.629L38.5604 10.4081H13.4537L17.2129 16.373L13.8811 21.6586L6.09346 9.28906C5.78624 8.89189 5.60405 8.42489 5.56685 7.93915C5.52964 7.45341 5.63884 6.96764 5.88251 6.53499C6.12617 6.10234 6.49491 5.73949 6.94838 5.48612C7.40184 5.23276 7.92257 5.09865 8.45358 5.09846Z" fill="#03B3AB"/>
</svg>
