<svg width="20" height="20" viewBox="0 0 20 20" fill="none" xmlns="http://www.w3.org/2000/svg">
<g clip-path="url(#clip0_307_4124)">
<path d="M10 20C15.5228 20 20 15.5228 20 10C20 4.47715 15.5228 0 10 0C4.47715 0 0 4.47715 0 10C0 15.5228 4.47715 20 10 20Z" fill="#F0F0F0"/>
<path d="M2.28578 3.6364H17.7142C17.1444 2.94636 16.4834 2.33445 15.7503 1.81824H4.24973C3.51656 2.33437 2.85566 2.94632 2.28578 3.6364V3.6364Z" fill="#F0F0F0"/>
<path d="M0 10C0 10.3065 0.0145703 10.6096 0.0415625 10.9091H19.9584C19.9854 10.6096 20 10.3065 20 10C20 9.69348 19.9854 9.39043 19.9584 9.09094H0.0415625C0.0145703 9.39043 0 9.69348 0 10H0Z" fill="#F0F0F0"/>
<path d="M1.09047 14.5454H18.9095C19.204 13.9694 19.4441 13.3612 19.6234 12.7273H0.376564C0.555822 13.3612 0.796056 13.9694 1.09047 14.5454V14.5454Z" fill="#F0F0F0"/>
<path d="M4.24973 18.1818H15.7502C16.4834 17.6656 17.1443 17.0537 17.7142 16.3636H2.28578C2.85566 17.0536 3.51656 17.6656 4.24973 18.1818V18.1818Z" fill="#F0F0F0"/>
<path d="M0.376526 7.27275H19.6235C19.4442 6.63885 19.204 6.03057 18.9095 5.45459H1.09047C0.796057 6.03057 0.555823 6.63885 0.376526 7.27275V7.27275Z" fill="#F0F0F0"/>
<path d="M4.78262 1.81816H15.7503C14.1237 0.67293 12.1405 0 10 0C8.69566 0 6.40918 0.67293 4.78262 1.81816Z" fill="#D80027"/>
<path d="M9.56524 5.45458H18.9095C18.577 4.80407 18.1754 4.19473 17.7142 3.63641H9.56524V5.45458Z" fill="#D80027"/>
<path d="M9.56524 9.09093H19.9584C19.9022 8.46663 19.7891 7.85866 19.6235 7.27277H9.56524V9.09093Z" fill="#D80027"/>
<path d="M0.376565 12.7273H19.6234C19.7891 12.1414 19.9022 11.5334 19.9584 10.9091H0.0415649C0.0978149 11.5334 0.210862 12.1414 0.376565 12.7273V12.7273Z" fill="#D80027"/>
<path d="M2.28578 16.3636H17.7142C18.1754 15.8052 18.577 15.1959 18.9095 14.5454H1.09047C1.42301 15.1959 1.82465 15.8053 2.28578 16.3636V16.3636Z" fill="#D80027"/>
<path d="M10 20C12.1405 20 14.1237 19.3271 15.7503 18.1818H4.24973C5.87629 19.3271 7.85949 20 10 20Z" fill="#D80027"/>
<path d="M0.376526 7.27273C0.210823 7.85867 0.0978149 8.4666 0.0415649 9.0909H10V0C5.42266 0 1.56371 3.07547 0.376526 7.27273V7.27273Z" fill="#0052B4"/>
<path d="M5.95265 2.6087L6.60012 4.60148H8.69566L7.00043 5.8332L7.64785 7.82609L5.95265 6.59445L4.25738 7.82609L4.90496 5.8332L3.20972 4.60148H5.30515L5.95265 2.6087Z" fill="#F0F0F0"/>
</g>
<defs>
<clipPath id="clip0_307_4124">
<rect width="20" height="20" fill="white"/>
</clipPath>
</defs>
</svg>
