<svg width="10" height="12" viewBox="0 0 10 12" fill="none" xmlns="http://www.w3.org/2000/svg">
<g clip-path="url(#clip0_307_5206)">
<path d="M5 12C7.76142 12 10 9.31371 10 6C10 2.68629 7.76142 0 5 0C2.23858 0 0 2.68629 0 6C0 9.31371 2.23858 12 5 12Z" fill="#F0F0F0"/>
<path d="M4.78262 6.00004H10C10 5.45849 9.93985 4.93387 9.82776 4.43481H4.78262V6.00004Z" fill="#D80027"/>
<path d="M4.78262 2.86967H9.26614C8.96006 2.27033 8.56872 1.74057 8.11243 1.30444H4.78262V2.86967Z" fill="#D80027"/>
<path d="M5 12.0001C6.17673 12.0001 7.25832 11.5121 8.11242 10.6958H1.88757C2.74167 11.5121 3.82326 12.0001 5 12.0001Z" fill="#D80027"/>
<path d="M0.733862 9.13041H9.26613C9.51185 8.64926 9.70242 8.12333 9.82775 7.56519H0.172241C0.297573 8.12333 0.48814 8.64926 0.733862 9.13041Z" fill="#D80027"/>
<path d="M2.31609 0.936984H2.77174L2.34791 1.30648L2.5098 1.90434L2.086 1.53485L1.66219 1.90434L1.80203 1.38785C1.42887 1.76086 1.1018 2.19788 0.832266 2.68481H0.978262L0.708477 2.92001C0.666445 3.00415 0.626133 3.08962 0.5875 3.17637L0.716328 3.65217L0.475977 3.44262C0.41623 3.59452 0.361582 3.74984 0.312461 3.90839L0.454395 4.43264H0.978262L0.554434 4.80213L0.716328 5.4L0.29252 5.03051L0.0386523 5.25185C0.0132422 5.49696 0 5.74662 0 6H5C5 2.68631 5 2.29566 5 0C4.01227 0 3.0915 0.343828 2.31609 0.936984ZM2.5098 5.4L2.086 5.03051L1.66219 5.4L1.82408 4.80213L1.40025 4.43264H1.92412L2.086 3.83477L2.24787 4.43264H2.77174L2.34791 4.80213L2.5098 5.4ZM2.34791 3.0543L2.5098 3.65217L2.086 3.28268L1.66219 3.65217L1.82408 3.0543L1.40025 2.68481H1.92412L2.086 2.08695L2.24787 2.68481H2.77174L2.34791 3.0543ZM4.30328 5.4L3.87947 5.03051L3.45566 5.4L3.61756 4.80213L3.19373 4.43264H3.7176L3.87947 3.83477L4.04135 4.43264H4.56521L4.14139 4.80213L4.30328 5.4ZM4.14139 3.0543L4.30328 3.65217L3.87947 3.28268L3.45566 3.65217L3.61756 3.0543L3.19373 2.68481H3.7176L3.87947 2.08695L4.04135 2.68481H4.56521L4.14139 3.0543ZM4.14139 1.30648L4.30328 1.90434L3.87947 1.53485L3.45566 1.90434L3.61756 1.30648L3.19373 0.936984H3.7176L3.87947 0.339117L4.04135 0.936984H4.56521L4.14139 1.30648Z" fill="#0052B4"/>
</g>
<defs>
<clipPath id="clip0_307_5206">
<rect width="10" height="12" fill="white"/>
</clipPath>
</defs>
</svg>
